:SAMPLES-PER-SECOND 30
:FULLY-SPECIFIED
:DEGREES
343
root  -72.4395 41.6736 0.169113 88.7447 88.8234 88.1969
RightUpLeg  3.10996 -8.34811 -5.61808
RightLeg  4.67719 -5.90647 3.32637
RightFoot  -5.00646 0.0012845 -0.609345
RightToes  0.000482159 0.542163 -0.142577
Spine  3.04908 0.21314 -0.976498
Spine1  1.21564 -0.0573196 1.71034
HEad  -3.7192 2.89469 -0.404408
LeftShoulder1  1.06383 -3.14448 -8.48623
LeftArm  -39.9288 13.3936 -2.35598
LeftForeArm  36.6302 -24.4011 -3.28869
LeftHand  -0.25398 0.0180481 5.50724
RightShoulder  0.634725 0.611631 7.92804
RightArm  -28.469 -4.13217 1.33636
RightForeArm  -1.52476 21.0226 4.61789
RightHand  -2.33427 7.7855 -20.7781
LeftUpLeg  3.06811 3.62541 1.15934
LeftLeg  0.784424 10.9112 -3.26422
LeftFoot  -2.78525 -0.0396105 0.750195
LeftToes  1.06246e-005 4.65855e-005 -8.18503e-006
344
root  -72.4879 41.6776 0.165046 93.4205 88.8482 92.887
RightUpLeg  3.02412 -8.32385 -5.57282
RightLeg  4.74653 -6.02685 3.3038
RightFoot  -4.94104 0.000952343 -0.604185
RightToes  0.000482159 0.542163 -0.142577
Spine  3.24985 0.114989 -1.41148
Spine1  1.29049 -0.258796 2.19109
HEad  -4.57621 3.19694 -0.702613
LeftShoulder1  1.09369 -3.23011 -8.75341
LeftArm  -37.9517 13.1769 -2.97606
LeftForeArm  35.7287 -21.8298 -2.49873
LeftHand  -0.25398 0.0180481 5.50724
RightShoulder  0.663928 0.698885 8.34479
RightArm  -27.609 -3.61447 1.78125
RightForeArm  0.224781 19.4627 4.27525
RightHand  -2.22472 7.5833 -20.1345
LeftUpLeg  2.93866 3.64049 1.18239
LeftLeg  0.882202 10.8141 -3.25406
LeftFoot  -2.68644 -0.0484745 0.854184
LeftToes  1.06246e-005 4.65855e-005 -8.18503e-006
345
root  -72.5303 41.679 0.153946 94.8443 88.8153 94.2755
RightUpLeg  2.85035 -8.33994 -5.60502
RightLeg  4.88619 -6.02119 3.27782
RightFoot  -4.9166 0.00050865 -0.597292
RightToes  0.000482159 0.542163 -0.142577
Spine  3.43101 0.119662 -1.83702
Spine1  1.46284 -0.34838 2.6324
HEad  -5.59574 3.56372 -0.887145
LeftShoulder1  1.16904 -3.47621 -9.3194
LeftArm  -35.4816 13.181 -3.36352
LeftForeArm  33.2985 -19.4242 -1.41057
LeftHand  -0.25398 0.0180481 5.50724
RightShoulder  0.637104 0.479026 8.5634
RightArm  -26.7091 -3.31947 2.33653
RightForeArm  2.67176 17.7617 3.90636
RightHand  -2.0941 7.26387 -19.4526
LeftUpLeg  2.83622 3.63854 1.14651
LeftLeg  0.862519 10.7646 -3.29985
LeftFoot  -2.5843 -0.0546759 0.918495
LeftToes  1.06246e-005 4.65855e-005 -8.18503e-006
346
root  -72.5637 41.6788 0.143041 93.9717 88.7551 93.3021
RightUpLeg  2.62442 -8.35304 -5.65509
RightLeg  4.98459 -5.97081 3.24482
RightFoot  -4.90502 0.00348797 -0.643574
RightToes  0.000482159 0.542163 -0.142577
Spine  3.58463 0.192678 -1.9871
Spine1  1.57665 -0.267785 2.5804
HEad  -6.68358 4.01104 -0.841676
LeftShoulder1  1.25888 -3.86536 -9.7015
LeftArm  -32.9462 13.439 -3.65408
LeftForeArm  31.2448 -17.4335 -0.523216
LeftHand  -0.25398 0.0180481 5.50724
RightShoulder  0.619471 0.284109 8.9616
RightArm  -25.8896 -3.42966 2.63839
RightForeArm  5.16568 15.7048 3.49439
RightHand  -1.94047 6.87332 -18.6261
LeftUpLeg  2.7079 3.60466 1.06485
LeftLeg  0.78729 10.8145 -3.35082
LeftFoot  -2.50533 -0.0592414 0.963265
LeftToes  1.06246e-005 4.65855e-005 -8.18503e-006
347
root  -72.5848 41.6806 0.135861 96.2775 88.7134 95.4698
RightUpLeg  2.4445 -8.3096 -5.64332
RightLeg  4.96216 -6.06181 3.18816
RightFoot  -4.87674 0.00255536 -0.629086
RightToes  0.000482159 0.542163 -0.142577
Spine  3.73167 0.192233 -1.89656
Spine1  1.54457 -0.178068 2.12962
HEad  -7.84166 4.43039 -0.611556
LeftShoulder1  1.29328 -4.09863 -9.62346
LeftArm  -30.7466 13.971 -4.10766
LeftForeArm  29.8547 -15.9347 -0.00517323
LeftHand  -0.25398 0.0180481 5.50724
RightShoulder  0.603268 0.079972 9.49602
RightArm  -25.3473 -3.46433 2.88995
RightForeArm  7.08899 12.9478 3.00032
RightHand  -1.7924 6.45194 -17.8407
LeftUpLeg  2.54721 3.56572 1.00723
LeftLeg  0.715103 10.8225 -3.38256
LeftFoot  -2.42316 -0.0629149 0.999952
LeftToes  1.06246e-005 4.65855e-005 -8.18503e-006
348
root  -72.5943 41.6857 0.123105 104.963 88.7106 104.061
RightUpLeg  2.44433 -8.22302 -5.56827
RightLeg  4.76951 -6.35157 3.13913
RightFoot  -4.80981 -0.00758523 -0.47157
RightToes  0.000482159 0.542163 -0.142577
Spine  3.92157 0.091572 -1.76414
Spine1  1.4113 -0.209435 1.7704
HEad  -8.83865 4.59649 -0.465933
LeftShoulder1  1.2835 -4.08794 -9.50719
LeftArm  -29.0217 14.5103 -4.55242
LeftForeArm  28.4071 -14.5812 0.351555
LeftHand  -0.25398 0.0180481 5.50724
RightShoulder  0.558843 -0.230896 9.7577
RightArm  -25.02 -3.27088 3.33592
RightForeArm  7.98596 9.66416 2.45103
RightHand  -1.65634 5.98212 -17.1819
LeftUpLeg  2.43619 3.54996 1.01752
LeftLeg  0.655098 10.6536 -3.39041
LeftFoot  -2.34775 -0.0659487 1.03019
LeftToes  1.06246e-005 4.65855e-005 -8.18503e-006
349
root  -72.6014 41.6915 0.0993544 116.388 88.7058 115.465
RightUpLeg  2.61277 -8.2007 -5.51977
RightLeg  4.4431 -6.62391 3.19455
RightFoot  -4.69071 -0.0149168 -0.3577
RightToes  0.000482159 0.542163 -0.142577
Spine  4.17174 0.0177133 -1.71457
Spine1  1.24856 -0.289283 1.77534
HEad  -9.42469 4.467 -0.69558
LeftShoulder1  1.29953 -4.06343 -9.80164
LeftArm  -27.6043 14.785 -4.65754
LeftForeArm  26.4873 -13.0322 0.699513
LeftHand  -0.25398 0.0180481 5.50724
RightShoulder  0.515393 -0.461211 9.60833
RightArm  -24.8692 -3.32233 3.76402
RightForeArm  7.88608 6.42983 1.87758
RightHand  -1.50279 5.45611 -16.359
LeftUpLeg  2.3925 3.55244 1.06268
LeftLeg  0.6286 10.4037 -3.37448
LeftFoot  -2.31878 -0.069723 1.07377
LeftToes  1.06246e-005 4.65855e-005 -8.18503e-006
350
root  -72.6145 41.6946 0.0744862 124.221 88.6826 123.299
RightUpLeg  2.78244 -8.32115 -5.57105
RightLeg  4.13106 -6.64839 3.39304
RightFoot  -4.55045 -0.00737782 -0.474792
RightToes  0.000482159 0.542163 -0.142577
Spine  4.42612 0.0471864 -1.76919
Spine1  1.09176 -0.310185 2.01076
HEad  -9.7154 4.32685 -1.24926
LeftShoulder1  1.34811 -4.1444 -10.306
LeftArm  -26.3298 14.8842 -4.47621
LeftForeArm  24.429 -11.4414 0.924173
LeftHand  -0.25398 0.0180481 5.50724
RightShoulder  0.506928 -0.463668 9.31456
RightArm  -25.2109 -3.84973 3.92171
RightForeArm  7.45294 3.71943 1.2533
RightHand  -1.30921 4.84076 -15.1313
LeftUpLeg  2.33916 3.55651 1.08929
LeftLeg  0.666272 10.2402 -3.35071
LeftFoot  -2.32972 -0.0741905 1.12826
LeftToes  1.06246e-005 4.65855e-005 -8.18503e-006
351
root  -72.633 41.694 0.0569647 127.128 88.6575 126.186
RightUpLeg  2.81447 -8.48233 -5.67059
RightLeg  4.00055 -6.52344 3.58748
RightFoot  -4.47389 0.00433819 -0.656781
RightToes  0.000482159 0.542163 -0.142577
Spine  4.62529 0.103252 -1.87549
Spine1  0.952699 -0.296512 2.21475
HEad  -9.93583 4.50026 -1.68826
LeftShoulder1  1.36893 -4.16488 -10.555
LeftArm  -25.2264 15.0541 -4.33219
LeftForeArm  22.7858 -10.166 0.943368
LeftHand  -0.25398 0.0180481 5.50724
RightShoulder  0.507467 -0.424907 9.09839
RightArm  -26.0386 -4.5046 3.96335
RightForeArm  7.01579 1.87251 0.614855
RightHand  -1.11499 4.13327 -13.8693
LeftUpLeg  2.23605 3.55173 1.07847
LeftLeg  0.754007 10.1837 -3.33379
LeftFoot  -2.34401 -0.0764253 1.15086
LeftToes  1.06246e-005 4.65855e-005 -8.18503e-006
352
root  -72.6529 41.6911 0.0398502 127.932 88.6182 126.952
RightUpLeg  2.6921 -8.49957 -5.70946
RightLeg  4.1131 -6.53752 3.57064
RightFoot  -4.51395 0.00251496 -0.628459
RightToes  0.000482159 0.542163 -0.142577
Spine  4.77408 0.0971385 -1.93073
Spine1  0.809909 -0.30946 2.23825
HEad  -9.96147 4.96097 -1.69196
LeftShoulder1  1.33863 -4.02733 -10.4677
LeftArm  -24.4194 15.3291 -4.36114
LeftForeArm  21.7543 -9.24826 0.886339
LeftHand  -0.25398 0.0180481 5.50724
RightShoulder  0.479526 -0.572043 8.95685
RightArm  -26.8472 -5.00244 4.10559
RightForeArm  6.43298 1.14279 0.204173
RightHand  -1.00157 3.57355 -13.2371
LeftUpLeg  2.12412 3.51254 1.01847
LeftLeg  0.82561 10.187 -3.31025
LeftFoot  -2.34523 -0.0752736 1.13296
LeftToes  1.06246e-005 4.65855e-005 -8.18503e-006
353
root  -72.6708 41.6885 0.0152514 128.441 88.5526 127.422
RightUpLeg  2.48442 -8.3677 -5.68339
RightLeg  4.37488 -6.73625 3.34872
RightFoot  -4.61665 -0.0097551 -0.437868
RightToes  0.000482159 0.542163 -0.142577
Spine  4.87213 0.0399546 -1.90174
Spine1  0.652506 -0.341776 2.10381
HEad  -9.58563 5.36357 -1.49903
LeftShoulder1  1.29912 -3.88311 -10.258
LeftArm  -23.9123 15.5983 -4.46856
LeftForeArm  21.0557 -8.50383 0.866453
LeftHand  -0.25398 0.0180481 5.50724
RightShoulder  0.436261 -0.830098 8.91279
RightArm  -27.1666 -5.41746 4.21067
RightForeArm  5.91961 1.41289 0.150826
RightHand  -1.00503 3.56514 -13.2869
LeftUpLeg  2.04525 3.41386 0.894878
LeftLeg  0.824248 10.2508 -3.26379
LeftFoot  -2.32803 -0.074972 1.12827
LeftToes  1.06246e-005 4.65855e-005 -8.18503e-006
